<?xml version="1.0" standalone="no"?>
<!DOCTYPE svg PUBLIC "-//W3C//DTD SVG 20010904//EN"
 "http://www.w3.org/TR/2001/REC-SVG-20010904/DTD/svg10.dtd">
<svg version="1.0" xmlns="http://www.w3.org/2000/svg"
 width="328.000000pt" height="184.000000pt" viewBox="0 0 328.000000 184.000000"
 preserveAspectRatio="xMidYMid meet">

<g transform="translate(0.000000,184.000000) scale(0.100000,-0.100000)"
fill="#000000" stroke="none">
<path d="M115 1749 c-4 -5 41 -118 195 -494 27 -66 130 -320 230 -565 245
-603 237 -583 243 -574 3 5 96 232 207 504 111 272 204 497 206 499 2 2 7 -5
10 -15 4 -10 37 -93 74 -184 37 -91 125 -307 195 -480 70 -173 131 -319 135
-323 7 -8 80 170 450 1088 87 215 172 425 190 468 l33 79 141 -4 c131 -3 145
-5 199 -32 102 -49 157 -167 157 -335 0 -192 -82 -331 -223 -379 l-57 -19 63
-17 c226 -63 330 -238 300 -506 -22 -200 -107 -300 -283 -333 -65 -13 -83 -30
-22 -22 20 2 66 7 102 10 241 22 421 118 488 262 24 52 27 69 27 168 0 105 -2
114 -33 177 -63 128 -197 213 -396 249 -36 7 -66 15 -66 18 0 4 23 12 51 18
69 17 171 69 223 114 23 21 58 66 77 101 32 59 34 68 34 158 -1 83 -4 102 -27
145 -36 70 -99 130 -174 166 -113 53 -170 61 -491 66 l-293 5 0 -238 0 -238
-151 -375 c-83 -207 -154 -379 -158 -384 -4 -4 -25 37 -45 90 -21 54 -106 269
-188 478 -82 209 -172 439 -200 510 -28 72 -54 134 -58 138 -5 6 -264 11 -335
7 -2 0 5 -21 16 -47 11 -27 67 -163 125 -305 l104 -256 -127 -311 c-70 -171
-129 -308 -133 -304 -4 5 -102 251 -218 548 -116 297 -224 571 -239 608 l-28
68 -163 2 c-90 1 -165 -1 -167 -4z"/>
</g>
</svg>
